<svg width="78" height="78" viewBox="0 0 78 78" fill="none" xmlns="http://www.w3.org/2000/svg">
<circle cx="39" cy="39" r="38" stroke="white" stroke-width="2"/>
<circle cx="39" cy="39" r="34" fill="white"/>
<path d="M39 49.7C41.4 49.7 43.4167 48.8833 45.05 47.25C46.6833 45.6167 47.5 43.6 47.5 41.2C47.5 38.7667 46.6833 36.7417 45.05 35.125C43.4167 33.5083 41.4 32.7 39 32.7C36.5667 32.7 34.5417 33.5083 32.925 35.125C31.3083 36.7417 30.5 38.7667 30.5 41.2C30.5 43.6 31.3083 45.6167 32.925 47.25C34.5417 48.8833 36.5667 49.7 39 49.7ZM22 57C21.2 57 20.5 56.7 19.9 56.1C19.3 55.5 19 54.8 19 54V28.35C19 27.5833 19.3 26.8917 19.9 26.275C20.5 25.6583 21.2 25.35 22 25.35H29.35L32.1 22.05C32.3667 21.6833 32.7 21.4167 33.1 21.25C33.5 21.0833 33.9333 21 34.4 21H43.6C44.0667 21 44.5 21.0833 44.9 21.25C45.3 21.4167 45.6333 21.6833 45.9 22.05L48.65 25.35H56C56.7667 25.35 57.4583 25.6583 58.075 26.275C58.6917 26.8917 59 27.5833 59 28.35V54C59 54.8 58.6917 55.5 58.075 56.1C57.4583 56.7 56.7667 57 56 57H22Z" fill="#292A2E"/>
</svg>
