<svg width="24" height="25" viewBox="0 0 24 25" fill="none" xmlns="http://www.w3.org/2000/svg">
<path d="M7 11.1348H9V13.1348H7V11.1348ZM21 6.13477V20.1348C21 21.2348 20.1 22.1348 19 22.1348H5C3.89 22.1348 3 21.2348 3 20.1348L3.01 6.13477C3.01 5.03477 3.89 4.13477 5 4.13477H6V2.13477H8V4.13477H16V2.13477H18V4.13477H19C20.1 4.13477 21 5.03477 21 6.13477ZM5 8.13477H19V6.13477H5V8.13477ZM19 20.1348V10.1348H5V20.1348H19ZM15 13.1348H17V11.1348H15V13.1348ZM11 13.1348H13V11.1348H11V13.1348Z" fill="white"/>
</svg>
