<svg width="14" height="16" viewBox="0 0 14 16" fill="none" xmlns="http://www.w3.org/2000/svg">
<path d="M7.00004 9.88716L11.3941 4.86532C11.51 4.73288 11.648 4.66838 11.808 4.67182C11.968 4.67527 12.1061 4.74321 12.222 4.87566C12.3379 5.0081 12.3959 5.16577 12.3959 5.34866C12.3959 5.53155 12.3379 5.68927 12.222 5.82182L7.74714 10.9257C7.64166 11.0461 7.52349 11.1354 7.39262 11.1935C7.26176 11.2517 7.1309 11.2808 7.00004 11.2808C6.86918 11.2808 6.73832 11.2517 6.60746 11.1935C6.4766 11.1354 6.35842 11.0461 6.25294 10.9257L1.77804 5.81149C1.66215 5.67905 1.60571 5.5231 1.60873 5.34366C1.61174 5.1641 1.67119 5.0081 1.78708 4.87566C1.90297 4.74321 2.04093 4.67699 2.20096 4.67699C2.36098 4.67699 2.49899 4.74321 2.61498 4.87566L7.00004 9.88716Z" fill="white"/>
</svg>
