<svg width="20" height="20" viewBox="0 0 20 20" fill="none" xmlns="http://www.w3.org/2000/svg">
<mask id="mask0_160_1776" style="mask-type:alpha" maskUnits="userSpaceOnUse" x="0" y="0" width="20" height="20">
<rect width="20" height="20" fill="#D9D9D9"/>
</mask>
<g mask="url(#mask0_160_1776)">
<path d="M10 17.9167C9.0171 17.9167 8.0962 17.7308 7.23731 17.359C6.37829 16.9872 5.62933 16.4818 4.99044 15.8429C4.35155 15.204 3.8462 14.4551 3.4744 13.5961C3.10259 12.7372 2.91669 11.8163 2.91669 10.8334C2.91669 10.656 2.97655 10.5075 3.09627 10.3879C3.21585 10.2682 3.36433 10.2084 3.54169 10.2084C3.71905 10.2084 3.86752 10.2682 3.9871 10.3879C4.10683 10.5075 4.16669 10.656 4.16669 10.8334C4.16669 12.4584 4.73266 13.8368 5.8646 14.9688C6.99655 16.1007 8.37502 16.6667 10 16.6667C11.625 16.6667 13.0035 16.1007 14.1354 14.9688C15.2674 13.8368 15.8334 12.4584 15.8334 10.8334C15.8334 9.20835 15.2674 7.82988 14.1354 6.69793C13.0035 5.56599 11.625 5.00002 10 5.00002H9.77877L10.6636 5.8846C10.7875 6.00863 10.8486 6.1537 10.8469 6.31981C10.8454 6.48592 10.7843 6.63356 10.6636 6.76272C10.5343 6.89203 10.3857 6.95884 10.2179 6.96314C10.0503 6.96745 9.90183 6.90495 9.77252 6.77564L7.89919 4.89418C7.74849 4.74363 7.67315 4.56793 7.67315 4.3671C7.67315 4.16613 7.74849 3.99036 7.89919 3.83981L9.78856 1.95835C9.91245 1.83446 10.0596 1.77328 10.23 1.77481C10.4004 1.77647 10.5503 1.84196 10.6796 1.97127C10.8003 2.10043 10.8628 2.24675 10.8671 2.41022C10.8713 2.5737 10.8088 2.72009 10.6796 2.84939L9.77877 3.75002H10C10.9829 3.75002 11.9038 3.93592 12.7627 4.30773C13.6218 4.67953 14.3707 5.18488 15.0096 5.82377C15.6485 6.46266 16.1538 7.21161 16.5256 8.07064C16.8975 8.92953 17.0834 9.85043 17.0834 10.8334C17.0834 11.8163 16.8975 12.7372 16.5256 13.5961C16.1538 14.4551 15.6485 15.204 15.0096 15.8429C14.3707 16.4818 13.6218 16.9872 12.7627 17.359C11.9038 17.7308 10.9829 17.9167 10 17.9167Z" fill="#F4F4F5" fill-opacity="0.6"/>
</g>
</svg>
