<svg width="14" height="14" viewBox="0 0 14 14" fill="none" xmlns="http://www.w3.org/2000/svg">
<path d="M6.81319 0.165943C6.83947 -0.0553144 7.16053 -0.0553144 7.18681 0.165943L7.40705 2.02209C7.69143 4.41888 9.58112 6.30857 11.9779 6.59296L13.834 6.81319C14.0553 6.83947 14.0553 7.16053 13.834 7.18681L11.9779 7.40705C9.58112 7.69143 7.69143 9.58112 7.40705 11.9779L7.18681 13.834C7.16053 14.0553 6.83947 14.0553 6.81319 13.834L6.59296 11.9779C6.30857 9.58112 4.41888 7.69143 2.02209 7.40705L0.165943 7.18681C-0.0553144 7.16053 -0.0553144 6.83947 0.165943 6.81319L2.02209 6.59296C4.41888 6.30857 6.30857 4.41888 6.59296 2.02209L6.81319 0.165943Z" fill="#F2994A"/>
</svg>
