<svg width="44" height="44" viewBox="0 0 44 44" fill="none" xmlns="http://www.w3.org/2000/svg">
<rect width="44" height="44" rx="12" fill="white"/>
<mask id="mask0_118_4142" style="mask-type:alpha" maskUnits="userSpaceOnUse" x="10" y="10" width="24" height="24">
<rect x="10" y="10" width="24" height="24" fill="#D9D9D9"/>
</mask>
<g mask="url(#mask0_118_4142)">
<path d="M17.875 16.7462L20.5787 13.198C20.7582 12.9578 20.9714 12.7815 21.2183 12.669C21.4651 12.5563 21.7257 12.5 22 12.5C22.2743 12.5 22.5349 12.5563 22.7817 12.669C23.0286 12.7815 23.2417 12.9578 23.4212 13.198L26.125 16.7462L30.2595 18.1423C30.6545 18.2692 30.9625 18.4932 31.1835 18.814C31.4047 19.135 31.5152 19.4895 31.5152 19.8775C31.5152 20.0567 31.4891 20.2353 31.4368 20.4133C31.3844 20.5913 31.2984 20.7618 31.1788 20.925L28.4865 24.6615L28.5865 28.627C28.6032 29.1535 28.4296 29.5972 28.0658 29.9583C27.7021 30.3194 27.2783 30.5 26.7943 30.5C26.7801 30.5 26.6128 30.4782 26.2923 30.4345L22 29.2038L17.7077 30.4345C17.6244 30.4678 17.5384 30.4871 17.4497 30.4923C17.3611 30.4974 17.2798 30.5 17.2058 30.5C16.7173 30.5 16.2922 30.3194 15.9307 29.9583C15.5692 29.5972 15.3968 29.1535 15.4135 28.627L15.5135 24.6365L12.8365 20.925C12.7168 20.7612 12.6308 20.5899 12.5785 20.4113C12.5262 20.2324 12.5 20.0537 12.5 19.875C12.5 19.4978 12.6098 19.1471 12.8295 18.8227C13.0492 18.4984 13.356 18.2684 13.75 18.1328L17.875 16.7462Z" fill="#F5C905"/>
</g>
</svg>
