<svg width="14" height="16" viewBox="0 0 14 16" fill="none" xmlns="http://www.w3.org/2000/svg">
<path d="M7.00002 6.11284L2.60592 11.1347C2.49003 11.2671 2.35207 11.3316 2.19204 11.3282C2.03201 11.3247 1.89401 11.2568 1.77802 11.1243C1.66213 10.9919 1.60419 10.8342 1.60419 10.6513C1.60419 10.4685 1.66213 10.3107 1.77802 10.1782L6.25292 5.07434C6.3584 4.9539 6.47658 4.86462 6.60744 4.80651C6.7383 4.74829 6.86916 4.71918 7.00002 4.71918C7.13088 4.71918 7.26174 4.74829 7.3926 4.80651C7.52346 4.86462 7.64164 4.9539 7.74712 5.07434L12.222 10.1885C12.3379 10.321 12.3943 10.4769 12.3913 10.6563C12.3883 10.8359 12.3289 10.9919 12.213 11.1243C12.0971 11.2568 11.9591 11.323 11.7991 11.323C11.6391 11.323 11.5011 11.2568 11.3851 11.1243L7.00002 6.11284Z" fill="white"/>
</svg>
