<svg preserveAspectRatio="none" width="100%" height="100%" overflow="visible" style="display: block;" viewBox="0 0 14 14" fill="none" xmlns="http://www.w3.org/2000/svg">
<g id="Google Logo" clip-path="url(#clip0_272_1063)">
<path id="Vector" d="M13.16 7.14584C13.16 6.69084 13.1192 6.25334 13.0433 5.83334H7V8.31542H10.4533C10.3046 9.11751 9.8525 9.79709 9.17292 10.2521V11.8621H11.2467C12.46 10.745 13.16 9.10001 13.16 7.14584V7.14584Z" fill="var(--fill-0, #4285F4)"/>
<path id="Vector_2" d="M7 13.4167C8.73249 13.4167 10.185 12.8421 11.2467 11.8621L9.17291 10.2521C8.59833 10.6371 7.86333 10.8646 7 10.8646C5.32875 10.8646 3.91416 9.73584 3.40958 8.21917H1.26583V9.88167C2.32166 11.9788 4.49166 13.4167 7 13.4167Z" fill="var(--fill-0, #34A853)"/>
<path id="Vector_3" d="M3.40957 8.21917C3.28124 7.83417 3.20832 7.42292 3.20832 7C3.20832 6.57708 3.28124 6.16583 3.40957 5.78083V4.11833H1.26582C0.83124 4.98458 0.583324 5.96458 0.583324 7C0.583324 8.03542 0.83124 9.01542 1.26582 9.88167L3.40957 8.21917V8.21917Z" fill="var(--fill-0, #FBBC05)"/>
<path id="Vector_4" d="M7 3.13542C7.94208 3.13542 8.78791 3.45917 9.45291 4.09501L11.2933 2.25459C10.1821 1.21917 8.72958 0.583339 7 0.583339C4.49166 0.583339 2.32166 2.02126 1.26583 4.11834L3.40958 5.78084C3.91416 4.26417 5.32875 3.13542 7 3.13542Z" fill="var(--fill-0, #EA4335)"/>
<g id="Vector_5">
</g>
</g>
<defs>
<clipPath id="clip0_272_1063">
<rect width="14" height="14" fill="white"/>
</clipPath>
</defs>
</svg>
