<svg width="86" height="35" viewBox="0 0 86 35" fill="none" xmlns="http://www.w3.org/2000/svg">
<path d="M19.0805 14.2449L22.2991 1.1846L5.62145 14.8102L12.9778 19.5519L6.92188 34.2695L19.1807 23.4065L30.3487 13.2895L19.0805 14.2449Z" fill="#4D00FF"/>
<path d="M21.6755 19.9688C21.505 19.9951 21.3542 19.9747 21.2231 19.9077C21.0854 19.8417 20.9192 19.7432 20.7245 19.6121C20.5297 19.4811 20.3098 19.317 20.0646 19.12C19.9718 19.0403 19.9198 18.9644 19.9087 18.8923C19.8976 18.8202 19.9243 18.7322 19.9888 18.6283C20.3244 18.1067 20.6427 17.7119 20.9437 17.444C21.0143 17.3795 21.1217 17.336 21.2659 17.3138C21.7117 17.245 22.0694 17.0187 22.3391 16.6348C22.6153 16.2499 22.6892 15.6848 22.5608 14.9395C22.4298 14.1342 22.1429 13.6012 21.7 13.3407C21.2637 13.0791 20.7079 13.0004 20.0327 13.1046L19.5607 13.1774C19.128 13.2441 18.8472 13.3814 18.7181 13.5893C18.5891 13.7971 18.559 14.1239 18.6278 14.5697L20.1583 24.4916C20.1887 24.6882 20.1673 24.8325 20.0942 24.9243C20.0267 25.0085 19.8946 25.0658 19.6979 25.0962L17.6034 25.4193C17.4067 25.4496 17.2602 25.4353 17.1639 25.3763C17.0731 25.3098 17.0125 25.1782 16.9822 24.9815L15.2938 14.037C15.1927 13.3814 15.1718 12.8544 15.2312 12.456C15.296 12.05 15.4896 11.7383 15.8117 11.5208C16.1394 11.2957 16.6409 11.1311 17.3161 11.0269L19.6565 10.6659C21.5379 10.3757 22.9881 10.5312 24.0071 11.1324C25.025 11.7271 25.6513 12.7848 25.8859 14.3057C26.0619 15.4464 25.9662 16.4142 25.5989 17.2092C25.2381 18.0031 24.7038 18.6291 23.9959 19.0873C23.2946 19.5445 22.5212 19.8384 21.6755 19.9688Z" fill="white"/>
<path d="M28.9734 7.5006C28.9765 7.41443 29.0058 7.33914 29.0612 7.27476C29.1166 7.21037 29.1893 7.12669 29.2793 7.02372C29.4725 6.81825 29.6959 6.60391 29.9495 6.3807C30.2033 6.15086 30.4601 5.93108 30.7198 5.72136C30.8834 5.60112 31.005 5.54242 31.0846 5.54528C31.1641 5.54813 31.2845 5.6155 31.4457 5.74739C31.966 6.23067 32.4072 6.69784 32.7694 7.1489C32.852 7.25142 32.9185 7.34009 32.9689 7.41491C33.0262 7.48334 33.0533 7.56064 33.0502 7.64682C33.0471 7.73299 33.0145 7.80816 32.9525 7.8723C32.8971 7.93669 32.821 8.02357 32.7241 8.13293C32.5378 8.332 32.321 8.54658 32.0738 8.77666C31.8268 9.00011 31.5736 9.21338 31.3141 9.41647C31.2184 9.49269 31.1436 9.54311 31.0896 9.56772C31.0359 9.5857 30.9858 9.59387 30.9394 9.5922C30.893 9.59054 30.8437 9.57881 30.7913 9.55702C30.7459 9.52884 30.6716 9.47308 30.5684 9.38973C30.3108 9.16809 30.0702 8.93711 29.8465 8.69678C29.623 8.44982 29.4224 8.21363 29.2447 7.98822C29.1623 7.87907 29.0957 7.79371 29.0448 7.73215C28.9941 7.66396 28.9703 7.58678 28.9734 7.5006ZM32.1068 20.6256C32.0997 20.8245 32.0516 20.9621 31.9626 21.0386C31.8804 21.1086 31.7399 21.1401 31.541 21.133L29.4927 21.0595C29.2938 21.0524 29.1526 21.0108 29.0691 20.9348C28.9924 20.8524 28.9576 20.7118 28.9647 20.5129L29.2921 11.385C29.2992 11.1861 29.3439 11.0516 29.426 10.9816C29.5151 10.9051 29.659 10.8704 29.8579 10.8776L31.9062 10.951C32.1051 10.9582 32.2429 11.0029 32.3195 11.0853C32.4031 11.1613 32.4413 11.2988 32.4342 11.4976L32.1068 20.6256Z" fill="white"/>
<path d="M41.685 13.8544C42.4663 13.9668 43.0248 14.1142 43.3605 14.2965C43.6971 14.4722 43.9061 14.6028 43.9877 14.6882C44.1189 14.8009 44.2135 14.9352 44.2715 15.091C44.3071 15.1698 44.3417 15.3021 44.3753 15.4879C44.4088 15.6736 44.4237 15.8734 44.4197 16.0873C44.4289 16.2562 44.4152 16.3748 44.3786 16.4433C44.3428 16.5052 44.249 16.5754 44.0969 16.6541C43.9242 16.7365 43.7366 16.8066 43.5339 16.8646C43.3387 16.9169 43.1797 16.951 43.0568 16.9669C42.9545 16.979 42.8781 16.9747 42.8274 16.954C42.7768 16.9333 42.7102 16.8835 42.6278 16.8046C42.5331 16.7173 42.3967 16.6173 42.2186 16.5045C42.0414 16.3852 41.7854 16.3015 41.4506 16.2533C41.0238 16.1919 40.6016 16.2384 40.184 16.3928C39.773 16.5481 39.4158 16.8184 39.1125 17.2037C38.8157 17.5899 38.6219 18.0981 38.5313 18.7284C38.3953 19.6739 38.5362 20.4413 38.954 21.0308C39.3784 21.6213 40.0075 21.9765 40.8413 22.0964C41.2681 22.1578 41.6287 22.1661 41.9233 22.1214C42.2189 22.0701 42.4553 22.0103 42.6327 21.942C42.7744 21.8886 42.8752 21.8864 42.9352 21.9352C43.0027 21.9784 43.0496 22.0488 43.0757 22.1464L43.5609 23.8748C43.6086 24.0559 43.5517 24.1717 43.3903 24.2222C43.1295 24.312 42.7087 24.3955 42.1279 24.4728C41.5472 24.5501 40.8465 24.5298 40.0258 24.4117C38.3778 24.1747 37.1242 23.5487 36.265 22.5339C35.4067 21.5124 35.1032 20.1285 35.3544 18.382C35.5149 17.2659 35.8788 16.3432 36.4461 15.6139C37.0134 14.8846 37.7442 14.3699 38.6385 14.0696C39.5337 13.7628 40.5492 13.6911 41.685 13.8544Z" fill="white"/>
<path d="M66.6447 14.9688C67.4335 14.9971 68.0045 15.084 68.3578 15.2294C68.7112 15.3682 68.933 15.4757 69.0232 15.5519C69.1657 15.65 69.2741 15.7733 69.3484 15.922C69.3922 15.9966 69.4407 16.1244 69.494 16.3056C69.5472 16.4867 69.5833 16.6838 69.6022 16.8969C69.6294 17.0638 69.6284 17.1832 69.5993 17.2552C69.5704 17.3205 69.4846 17.4004 69.3418 17.4948C69.1789 17.5952 68.9998 17.685 68.8045 17.7643C68.616 17.8372 68.4615 17.8881 68.341 17.9169C68.2406 17.9399 68.1642 17.9438 68.1116 17.9286C68.059 17.9134 67.9876 17.8711 67.8971 17.8014C67.7937 17.7247 67.6474 17.6398 67.4582 17.5468C67.2693 17.4471 67.0058 17.3911 66.6678 17.379C66.2369 17.3636 65.8221 17.4549 65.4234 17.653C65.0313 17.8513 64.705 18.1582 64.4445 18.5737C64.1907 18.9893 64.0523 19.5154 64.0295 20.1518C63.9953 21.1063 64.2173 21.8543 64.6957 22.3959C65.1807 22.9376 65.8442 23.2236 66.6861 23.2538C67.1169 23.2692 67.4764 23.239 67.7646 23.163C68.0529 23.0804 68.2816 22.9957 68.4507 22.9089C68.5859 22.8407 68.6859 22.8277 68.7508 22.8698C68.8225 22.9056 68.8766 22.9706 68.913 23.0648L69.5801 24.7315C69.6468 24.9065 69.6026 25.0277 69.4475 25.0951C69.1978 25.2123 68.7883 25.3403 68.2191 25.4792C67.65 25.6181 66.9511 25.6727 66.1225 25.6429C64.4586 25.5833 63.1453 25.0948 62.1826 24.1775C61.2202 23.2535 60.7705 21.9099 60.8338 20.1466C60.8742 19.0197 61.1375 18.0634 61.6237 17.2778C62.1098 16.4921 62.7814 15.9022 63.6385 15.5081C64.4958 15.1075 65.4979 14.9277 66.6447 14.9688Z" fill="white"/>
<path d="M53.4859 22.126C51.8225 22.2909 50.4618 21.9792 49.4038 21.1908C48.3458 20.4025 47.7301 19.1337 47.5568 17.3845C47.3788 15.5891 47.7476 14.1994 48.6633 13.2155C49.5849 12.2243 50.8873 11.6452 52.5705 11.4784C54.1943 11.3174 55.5381 11.6275 56.6021 12.4086C57.6653 13.183 58.2814 14.4218 58.4502 16.1248C58.6262 17.9004 58.2719 19.302 57.3872 20.3295C56.5025 21.3571 55.2021 21.9559 53.4859 22.126ZM53.3474 19.7201C54.0735 19.6481 54.5991 19.3694 54.9243 18.8839C55.2488 18.3918 55.3567 17.5979 55.2481 16.5022C55.1447 15.4592 54.884 14.7452 54.4659 14.36C54.0537 13.9676 53.4813 13.8077 52.7486 13.8804C52.0423 13.9504 51.5074 14.2367 51.144 14.7393C50.7865 15.2347 50.6587 15.9972 50.7608 17.0269C50.8675 18.1029 51.1338 18.8397 51.5598 19.2374C51.9925 19.6344 52.5883 19.7953 53.3474 19.7201Z" fill="white"/>
<path d="M76.3635 22.0253C74.7068 21.8031 73.4543 21.1867 72.606 20.1761C71.7578 19.1655 71.4505 17.7891 71.6841 16.047C71.924 14.2588 72.6026 12.9912 73.7201 12.2443C74.845 11.4917 76.2456 11.2278 77.9221 11.4526C79.5393 11.6696 80.7758 12.2805 81.6315 13.2853C82.4881 14.2836 82.8027 15.6309 82.5752 17.327C82.338 19.0955 81.6707 20.378 80.5734 21.1744C79.4761 21.9709 78.0728 22.2545 76.3635 22.0253ZM76.7822 19.652C77.5053 19.749 78.081 19.5987 78.5091 19.201C78.9381 18.7968 79.2258 18.049 79.3722 16.9577C79.5115 15.9189 79.422 15.1641 79.1037 14.693C78.7929 14.2163 78.2726 13.929 77.5428 13.8312C76.8394 13.7368 76.253 13.8924 75.7837 14.2979C75.3218 14.6978 75.0221 15.4105 74.8845 16.4361C74.7408 17.5077 74.8305 18.286 75.1536 18.771C75.4833 19.257 76.0261 19.5506 76.7822 19.652Z" fill="white"/>
</svg>
